<svg width="427" height="305" viewBox="0 0 427 305" fill="none" xmlns="http://www.w3.org/2000/svg">
<path d="M0.5 229.276C0.5 229.276 61.3714 212.161 63.0423 212.161C64.7133 212.161 64.4747 233.316 63.0423 233.792C61.6101 234.267 27.6849 237.833 32.3539 241.874C37.0228 245.915 63.7585 234.98 70.9199 241.874C78.0812 248.767 85.2426 256.373 87.3909 256.373C89.5392 256.373 91.449 257.562 92.4039 256.373C93.3587 255.185 88.3457 245.439 82.8554 238.546C77.365 231.652 151.127 234.267 154.707 232.366C158.288 230.464 160.437 228.8 159.959 228.087C159.482 227.374 80.2295 231.415 79.2747 228.325C78.3198 225.235 80.2625 201.94 80.2625 201.94C80.2625 201.94 49.9131 211.448 48.9583 211.448C48.0034 211.448 43.2292 210.497 43.2292 210.497C43.2292 210.497 31.0549 58.1312 33.4421 57.6559C35.8292 57.1805 42.0357 60.5083 42.0357 60.5083C42.0357 60.5083 100.52 70.7294 103.623 70.4917C106.726 70.254 111.023 69.7786 111.023 65.9754C111.023 62.1722 78.8633 62.0792 80.2625 57.6094C81.6617 53.1396 129.881 64.0738 130.359 65.2623C130.836 66.4508 130.359 68.3524 130.359 68.3524L94.0747 64.7869C94.0747 64.7869 94.7909 70.9671 94.7909 72.1556C94.7909 73.3442 156.617 80.4752 156.617 80.4752L163.062 179.121C163.062 179.121 66.3842 197.661 49.4357 204.555C43.9453 139.663 39.6486 62.6476 39.6486 62.6476C39.6486 62.6476 45.1389 88.7947 80.2295 88.0816C115.32 87.3685 51.1067 120.884 102.907 118.507C154.707 116.13 182.398 116.606 127.256 134.195C72.1134 151.785 31.7711 172.703 72.5907 174.367C113.41 176.031 158.288 170.564 134.656 177.932C111.023 185.301 156.856 176.268 159.959 177.695C163.062 179.121 163.062 184.826 163.062 184.826L72.6505 207.942C72.6505 207.942 73.844 234.208 73.7247 234.564C73.6053 234.921 79.9311 243.24 81.7812 246.925C83.6312 250.609 85.7796 254.056 86.257 254.056C86.7345 254.056 127.673 255.944 137.58 256.902C147.486 257.859 203.584 262 204.3 262C205.016 262 236.884 237.536 235.81 237.001C234.735 236.466 229.006 234.861 227.932 235.218C226.858 235.575 197.317 254.828 197.317 254.828C197.317 254.828 138.952 248.767 139.848 246.628C140.743 244.488 174.043 229.335 174.043 229.335L167.24 227.374C167.24 227.374 120.691 247.519 120.512 248.589C120.333 249.658 173.506 254.828 188.008 257.146C202.509 259.464 207.701 262 210.029 262H256.219C256.219 262 250.043 250.906 252.907 243.151C255.772 235.396 264.007 232.901 266.603 228.711C269.199 224.522 273.138 219.441 271.885 218.104C270.632 216.767 269.199 220.6 266.245 219.976C263.291 219.352 262.128 218.639 260.695 221.134C259.263 223.63 262.486 222.382 257.831 224.789C253.176 227.196 252.639 228.711 253.086 229.87C253.534 231.029 250.938 230.761 250.49 232.901C250.043 235.04 250.49 235.931 250.49 235.931C250.49 235.931 216.295 233.168 212.714 234.059C209.134 234.951 206.717 235.664 204.568 235.664H200.54C200.54 235.664 201.256 233.881 199.018 233.614C196.78 233.346 194.274 238.16 196.512 238.249C198.75 238.338 200.003 236.912 199.197 234.951C198.392 232.99 196.422 231.831 193.468 231.653C190.514 231.474 188.992 231.118 189.888 231.831C190.783 232.544 192.958 234.416 189.632 235.04C186.307 235.664 186.575 236.199 187.292 237.179C188.008 238.16 195.706 238.873 194.632 237.625C193.558 236.377 182.905 234.772 182.995 234.505C183.084 234.238 185.412 228.978 185.412 228.978C185.412 228.978 190.156 228.176 193.468 226.304C196.78 224.432 197.855 225.235 200.988 227.196C204.121 229.157 211.819 230.583 213.52 226.661C215.221 222.739 209.939 214.984 203.852 215.43C197.765 215.875 194.274 217.391 191.946 217.48C189.619 217.569 185.143 220.332 185.143 220.332C185.143 220.332 197.496 191.541 199.287 190.56C201.077 189.58 203.315 190.649 202.33 192.699C201.346 194.75 192.215 215.964 192.215 215.964C192.215 215.964 184.785 219.797 183.353 222.115C181.921 224.432 182.098 225.948 182.994 227.463L183.89 228.978L181.115 236.02L176.997 240.655C176.997 240.655 177.534 234.594 177.982 233.614C178.429 232.633 181.473 226.215 181.562 227.196C181.652 228.176 178.698 229.424 176.997 227.196C175.296 224.967 175.227 221.798 176.181 221.917C177.136 222.036 179.086 227.027 180.001 227.146C180.916 227.265 181.632 223.422 181.513 221.441C181.393 219.46 178.688 213.161 176.937 212.528C175.187 211.894 173.755 214.033 173.595 214.944C173.436 215.855 175.266 221.56 175.823 221.204C176.38 220.847 174.391 215.221 175.227 213.875C176.062 212.528 180.876 210.547 183.781 209.477C186.685 208.407 189.669 207.97 192.374 208.645C195.08 209.321 210.825 216.133 215.658 216.311C220.492 216.489 239.738 211.943 247.437 210.874C255.135 209.804 263.013 218.272 258.895 218.45C254.777 218.629 246.363 210.963 250.928 208.467C255.493 205.971 268.742 202.673 271.159 203.03C273.576 203.386 281.811 211.141 277.783 210.784C273.755 210.428 268.831 205.258 271.069 200.445C273.307 195.631 276.476 186.598 278.875 175.902C281.274 165.205 281.935 148.176 284.855 149.993C285.81 150.587 286.824 151.848 287.66 152.317C288.495 152.786 303.922 134.958 310.128 127.946C316.335 120.934 320.393 119.626 320.393 119.626L313.709 108.336C313.709 108.336 311.083 112.139 303.803 109.881C296.522 107.622 293.538 94.7867 291.032 91.2212C288.525 87.6557 281.483 85.9918 280.051 91.2212C278.619 96.4506 286.735 95.9752 285.303 100.373C283.87 104.77 282.677 112.139 286.854 111.069C291.032 109.999 293.896 96.3317 286.854 91.34C279.812 86.3483 275.873 93.5982 273.367 99.7784C270.86 105.959 266.802 99.4218 264.177 94.4301C261.551 89.4384 257.612 91.34 254.389 88.8442C251.167 86.3483 249.138 76.0084 251.286 71.1355C253.434 66.2626 266.325 56.3981 265.728 61.5086C265.131 66.6192 251.764 71.9674 243.289 76.0084C234.815 80.0493 234.696 84.3279 232.309 84.4467C229.921 84.5656 220.97 79.3361 224.909 69.8282C228.847 60.3202 234.338 61.3205 242.215 56.5417C250.093 51.763 257.731 45.9393 270.025 44.2754C282.319 42.6116 289.719 49.0295 290.315 49.0295C290.912 49.0295 303.086 47.1279 309.054 62.4596C315.022 77.7913 309.651 90.2705 310.486 95.1434C311.322 100.016 314.187 107.028 313.59 106.672C312.993 106.315 305.115 100.135 307.145 89.6763C309.174 79.2174 305.951 61.6771 299.983 56.5418C294.015 51.4065 283.87 54.2589 278.977 57.9433C274.083 61.6276 281.602 50.3368 275.635 49.2672C269.667 48.1975 252.36 60.2014 245.557 60.3202C238.754 60.4391 249.257 64.48 241.26 65.4308C233.263 66.3816 226.102 69.4718 229.205 70.7791C232.309 72.0864 232.905 74.9389 227.892 75.6519C222.879 76.365 233.144 79.8117 233.502 87.5369C233.86 95.2622 234.338 104.533 236.009 106.434C237.679 108.336 238.992 109.524 238.038 112.495C237.083 115.467 234.457 123.311 236.844 126.282C239.231 129.253 243.289 126.639 243.647 128.54C244.005 130.442 244.841 133.77 246.989 133.77C249.138 133.77 246.87 133.77 249.018 135.909C251.167 138.048 251.883 137.454 252.599 140.425C253.315 143.397 254.747 150.527 262.625 148.864C270.502 147.2 286.496 132.819 283.631 131.155C280.767 129.491 273.844 138.88 277.902 142.446C281.96 146.011 286.496 149.814 292.583 150.527C298.67 151.241 302.131 127.233 326.957 131.511C351.783 135.79 353.454 183.152 350.829 198.84C348.203 214.528 312.635 261.931 308.815 262C304.996 262.068 269.189 248.519 273.009 243.765C276.828 239.011 310.725 246.142 303.802 241.151C296.88 236.159 274.918 220.708 276.351 216.668C277.783 212.627 289.957 189.57 291.151 177.922C292.344 166.275 296.174 141.781 316.932 139.415C337.689 137.049 331.732 128.718 321.706 125.866C311.68 123.014 323.854 116.358 336.267 122.063C348.68 127.768 367.538 151.538 379.713 186.955C391.887 222.372 403.822 247.569 400.242 253.511C396.661 259.454 390.693 240.913 404.539 240.913C418.384 240.913 422.442 240.913 426.5 233.307" stroke="#AEAEAE" stroke-linecap="round" stroke-linejoin="round"/>
</svg>
