<svg width="504" height="361" viewBox="0 0 504 361" fill="none" xmlns="http://www.w3.org/2000/svg">
<path d="M496.223 301.72L385.549 301.711L379.965 301.428C378.698 301.365 376.488 300.498 376.21 299.088C375.819 297.116 376.039 295.364 376.098 293.383C374.521 294.96 373.155 296.455 371.956 298.36C369.818 301.761 365.694 304.114 361.283 302.457L312.832 284.242C306.404 281.825 305.447 275.424 307.54 269.723C322.782 228.213 338.993 187.335 356.095 146.575C357.2 143.943 358.875 141.575 361.184 140.264C364.275 138.507 368.223 138.287 371.709 139.54L412.002 154.063C417.532 156.058 423.039 159.62 422.594 166.254C422.334 170.091 421.368 173.868 420.02 177.534L409.981 204.85L378.07 291.649C377.607 292.911 376.56 297.897 377.894 299.227C378.42 299.753 379.736 300.382 380.828 300.382L497.234 300.431C497.377 300.813 497.44 300.979 497.503 301.096C497.598 301.275 496.569 301.711 496.228 301.711L496.223 301.72ZM376.767 291.348L396.707 236.81L418.448 178.257C419.782 174.663 420.667 171.223 421.283 167.557C422.774 158.676 413.413 155.887 406.751 153.443L394.232 148.848C385.895 145.784 377.818 142.617 369.297 140.304C364.531 139.01 359.702 141.458 357.882 145.879L337.682 194.945L311.165 263.538C309.894 266.826 308.704 269.706 308.008 273.075C307.141 277.279 308.879 281.448 313.119 283.051L361.18 301.186C365.168 302.69 368.735 300.858 370.828 297.7C372.508 295.166 374.314 293.073 376.762 291.353L376.767 291.348Z" fill="#AEAEAE"/>
<path d="M7.29446 300.395H135.312L123.552 283.446C122.119 281.384 120.489 279.52 118.773 277.683C117.479 279.129 115.691 280.176 114.146 278.855C112.731 277.647 108.751 273.173 110.844 271.475C111.28 271.12 112.646 270.963 113.185 271.309L116.823 273.654C115.628 270.904 116.037 269.265 118.068 267.19L108.41 271.134C106.024 272.108 103.374 271.65 101.901 269.135C98.5004 263.326 95.338 257.478 92.517 251.243C91.4254 248.835 91.2997 244.824 93.8152 243.422L116.055 231.011C116.554 230.732 118.063 230.723 118.607 230.917L121.077 237.839L130.286 258.349C131 259.939 129.814 261.871 128.633 262.45L132.689 263.609C134.63 264.162 136.732 263.259 137.877 265.469C140.851 271.192 132.222 271.924 136.462 277.355C139.764 281.591 143.798 285.189 148.281 288.324C151.16 290.341 152.108 293.782 149.727 296.859C146.785 300.669 141.395 302.016 136.656 301.023L134.634 301.724H6.8767C6.6521 301.724 6.11755 301.262 6.01423 301.064C5.87498 300.799 6.79135 300.386 7.29446 300.386V300.395ZM107.97 269.957L126.728 262.028C127.743 261.597 129.154 260.353 129.289 259.315L122.384 244.244C120.507 240.152 119.119 236.347 117.582 231.954C116.383 232.39 115.053 233.028 113.823 233.706L95.5221 243.795C92.9752 245.197 92.4047 248.247 93.6939 250.928C96.5643 256.898 99.6683 262.724 102.956 268.434C104.07 270.365 105.984 270.792 107.97 269.957ZM149.112 295.489C150.648 292.704 149.566 290.921 147.863 289.681C143.371 286.42 139.108 282.88 135.721 278.595C133.246 275.464 134.005 271.974 136.867 269.269C134.122 267.392 132.343 265.896 130.169 263.605L119.222 268.402C118.53 268.708 117.645 269.445 117.439 269.997C117.259 270.473 117.452 271.677 117.663 272.207L119.182 276.07L124.469 282.498C128.817 287.79 131.696 294.303 136.696 299.087C139.975 302.223 147.347 298.688 149.116 295.485L149.112 295.489ZM117.398 276.668C115.916 274.678 114.043 272.818 111.572 272.328C111.828 274.826 113.445 276.87 115.521 278.042C116.06 278.348 117.767 277.144 117.403 276.668H117.398Z" fill="#AEAEAE"/>
<path d="M196.602 255.838C174.586 245.677 156.645 251.737 134.774 258.803C133.79 259.122 132.258 258.56 131.845 257.644L120.673 232.781C120.026 231.343 120.507 228.715 121.81 227.848C131.647 221.299 140.946 214.655 149.849 206.934C155.361 202.154 159.489 196.746 162.979 190.358C165.369 185.987 166.712 181.347 167.929 176.559C169.169 171.676 173.333 169.052 178.337 170.36C187.474 172.745 196.162 184.707 201.058 192.559C209.84 206.646 216.717 222.355 218.824 239.002C219.43 243.786 219.12 248.386 217.323 252.775C215.621 256.934 211.771 259.432 207.086 259.014C203.497 258.695 199.975 257.397 196.606 255.847L196.602 255.838ZM215.971 252.73C220.338 243.319 215.765 227.57 212.265 218.02C207.445 204.876 198.506 188.745 188.844 178.688C185.825 175.543 182.326 172.96 178.364 171.622C174.425 170.292 170.925 172.071 169.51 175.844C167.803 180.395 167.489 185.048 168.006 190.129C169.65 206.305 175.462 221.443 183.669 235.422C187.681 242.254 192.074 248.269 197.999 253.466L199.077 255.587C204.881 258.089 212.706 259.769 215.976 252.734L215.971 252.73ZM135.82 257.262C144.562 254.23 152.818 251.8 161.721 250.156C173.791 247.928 185.268 249.585 196.835 254.396C191.207 248.889 186.809 243.485 183.094 236.922C177.677 227.97 173.297 218.761 170.476 208.654C168.145 201.292 166.99 194.122 166.348 186.36C162.215 195.555 156.789 202.927 149.341 209.13C140.941 216.124 132.492 222.453 123.27 228.365C122.223 229.034 121.217 230.831 121.814 232.147L133.183 257.253C133.417 257.774 135.088 257.523 135.825 257.271L135.82 257.262Z" fill="#AEAEAE"/>
<path d="M249.63 103.188L234.901 116.174L234.245 100.784L226.91 99.6838C219.507 98.5742 219.52 89.8822 219.534 83.7686C219.547 77.6549 219.502 71.7973 219.938 65.7511C220.221 61.8295 223.11 58.6582 227.143 58.4336C240.525 57.6879 253.866 57.8361 267.127 59.4128C271.345 59.9159 274.103 62.719 274.467 66.7258C275.23 75.0945 275.464 83.4092 274.179 91.6296C273.577 95.4927 271.044 98.2104 267.212 98.6641L254.226 100.214C252.793 100.385 250.852 102.114 249.63 103.188ZM235.961 113.596L250.21 100.928C251.813 99.5041 254.217 98.8033 256.346 98.5922L266.628 97.5635C270.419 97.1817 272.796 94.199 273.204 90.5335C274.098 82.4838 274.013 74.6318 273.2 66.5596C272.877 63.3658 270.451 61.1782 267.154 60.7559C253.956 59.067 240.727 59.0175 227.422 59.6689C223.833 59.8441 221.376 62.7235 221.173 66.1464C220.814 72.2106 220.855 78.0772 220.828 84.2178C220.805 89.4914 220.783 97.6534 227.269 98.5069L233.257 99.293C234.456 99.4502 235.566 100.452 235.606 101.692L235.966 113.596H235.961Z" fill="#AEAEAE"/>
<path d="M267.499 189.073C259.256 189.743 251.363 189.783 243.394 189.15C237.937 188.718 234.042 184.711 233.431 179.339C232.564 171.725 232.6 164.174 233.373 156.538C233.961 150.738 238.265 146.543 244.055 146.053C251.561 145.415 259.076 145.424 266.555 146.094C271.914 146.574 275.912 150.056 276.698 155.347C277.947 163.72 277.974 172.084 276.649 180.48C275.939 184.967 272.332 188.682 267.494 189.073H267.499ZM268.842 187.532C272.646 186.621 275.229 183.319 275.688 179.406C276.573 171.851 276.406 164.426 275.737 156.807C275.301 151.843 271.883 147.899 266.695 147.378C259.184 146.624 251.543 146.642 243.983 147.342C238.92 147.814 235.232 151.565 234.68 156.542C233.831 164.214 233.804 171.707 234.711 179.348C235.282 184.15 239.024 187.483 243.758 187.959C249.432 188.534 263.528 188.804 268.842 187.528V187.532Z" fill="#AEAEAE"/>
<path d="M201.39 149.027C195.811 160.445 182.488 164.888 171.087 159.924C160.108 155.145 154.484 142.118 158.752 130.699C163.033 119.249 175.53 112.821 187.595 116.567C201.143 120.776 207.751 136.004 201.386 149.022L201.39 149.027ZM182.474 160.643C193.206 159.623 201.264 151.331 202.419 140.883C203.663 129.621 195.964 119.523 185.268 117.277C174.218 114.955 163.482 121.064 159.7 131.975C157.234 139.081 158.95 146.745 163.72 152.661C167.996 157.97 174.95 161.357 182.474 160.643Z" fill="#AEAEAE"/>
<path d="M343.396 158.074C341.289 169.861 331.047 177.349 319.287 176.073C308.861 174.946 300.964 166.168 300.156 156.043C299.316 145.523 306.099 135.838 316.435 133.139C323.766 131.221 331.254 133.354 336.68 138.345C342.107 143.336 344.761 150.455 343.396 158.078V158.074ZM342.394 155.266C342.884 144.023 334.672 135.106 323.864 133.893C312.432 132.609 302.496 141.368 301.463 152.499C300.448 163.419 308.452 173.652 319.79 174.878C331.276 176.123 341.877 167.197 342.398 155.266H342.394Z" fill="#AEAEAE"/>
<path d="M94.1475 236.064L99.6771 232.699C99.3043 231.505 98.8865 229.878 98.8551 228.787L103.464 226.415L105.656 229.07L112.78 225.355C114.38 225.89 115.601 228.212 115.264 230.018L96.2722 240.471C95.1222 239.222 94.4933 237.897 94.1475 236.068V236.064ZM101.029 233.468L95.9712 236.307C95.3783 236.639 96.2812 238.975 96.9595 238.602L113.858 229.312C114.33 228.706 113.077 226.568 112.448 226.905L105.593 230.557C104.933 230.705 103.9 228.994 103.374 228.472C102.732 227.839 100.513 229.191 100.248 229.901L101.034 233.463L101.029 233.468Z" fill="#AEAEAE"/>
<path d="M99.6505 268.618C98.9183 270.94 96.6409 271.556 94.9788 271.78C89.3683 272.531 85.7253 262.428 84.5888 257.797C83.6544 254.006 86.4485 249.806 90.3835 250.039C92.9664 255.286 95.5673 260.339 98.5275 265.361C98.9767 266.121 99.8976 267.836 99.655 268.618H99.6505ZM98.514 268.088L89.5839 251.31C81.7004 253.184 87.9982 264.625 90.8731 268.501C91.8703 269.849 93.5369 270.711 94.9788 270.523C96.4208 270.334 98.0783 269.647 98.514 268.088Z" fill="#AEAEAE"/>
<path d="M373.241 292.268C371.022 298.27 363.745 299.86 358.152 298.009C346.549 294.177 335.472 289.636 324.165 285.014L316.215 281.766C312.841 280.387 311.008 276.569 312.392 272.723L332.139 217.966L360.241 146.565C363.453 138.399 372.329 143.21 378.842 145.451C390.652 149.516 402.376 153.371 413.503 158.653C417.101 160.36 418.641 164.493 418.049 167.866C417.276 172.286 416.36 176.221 414.819 180.359L402.861 212.45L391.025 244.172L373.232 292.268H373.241ZM351.787 289.155C352.995 289.645 353.898 291.379 354.855 291.931C357.743 293.607 367.783 294.878 370.316 288.046L413.628 171.222C414.572 168.67 413.359 165.813 411.005 165.041L398.755 161.034L394.376 160.064L380.635 154.795C379.597 154.395 378.699 152.885 378.537 152.001C378.375 151.116 378.914 149.404 379.871 148.946C380.765 148.515 382.359 148.807 383.294 149.171L398.324 155.069C400.507 155.927 400.804 158.002 400.26 160.131C403.679 161.515 407.546 162.727 411.302 163.774C414.783 164.744 415.996 168.684 414.671 172.246L371.543 288.36C370.182 292.026 366.947 294.227 363.237 294.393C359.023 294.582 351.517 293.221 347.304 291.967C343.09 290.714 339.757 288.652 335.431 288.1C342.057 290.939 348.606 293.324 355.443 295.803C358.808 297.025 362.424 297.942 365.982 297.138C368.888 296.482 371.291 293.867 372.356 290.988L387.373 250.259L411.751 184.976C414.087 178.715 416.171 172.852 416.849 166.146C417.123 163.455 414.513 160.369 412.025 159.282C400.768 154.368 389.524 150.388 377.89 146.444L368.812 143.367C365.851 142.365 362.658 144.009 361.481 146.983L336.748 209.552C339.843 207.796 344.105 208.16 345.458 211.466C346.621 214.314 344.375 216.757 344.743 219.812C348.121 210.069 352.393 208.973 359.248 202.441C362.136 199.688 363.062 194.212 367.262 194.194C369.077 194.185 371.076 195.025 371.826 196.966C373.906 202.338 366.849 211.762 364.342 217.557L382.252 223.725C383.474 224.147 384.588 225.836 384.776 226.815C385.037 228.167 383.878 229.407 383.483 230.732C383.164 231.81 384.358 233.935 383.667 235.112C383.065 236.131 381.537 237.075 380.509 237.744C380.688 238.75 381.165 240.588 380.81 241.675C380.513 242.591 379.058 243.26 377.706 243.462C375.325 243.813 377.544 246.836 375.033 249.068C374.184 249.819 372.01 250.546 370.572 250.425C361.584 249.652 352.973 247.707 344.388 245.062C342.21 244.392 339.919 242.995 339.33 240.722C338.778 238.593 339.362 236.293 339.519 233.989C338.131 236.675 336.936 239.541 333.706 240.336C332.386 240.659 330.495 240.125 329.614 239.285C326.843 236.635 331.51 227.978 331.398 223.783L319.943 255.735L313.304 274.336C312.549 276.447 314.22 279.497 316.295 280.351L329.547 285.809C328.77 284.466 328.226 282.718 329.614 282.049C330.629 281.559 332.898 281.514 333.998 281.959L351.791 289.155H351.787ZM397.861 156.268L381.03 149.772C380.419 149.534 379.381 151.479 379.714 151.96C379.992 152.369 380.563 153.478 381.147 153.694L396.752 159.489C397.664 159.826 399.187 159.219 399.33 158.397C399.434 157.804 398.764 156.614 397.861 156.268ZM379.835 240.848C379.88 240.264 379.525 239.168 379.26 238.499L378.663 237.012C378.29 236.082 382.072 236.639 382.651 234.186C383.28 231.514 379.965 230.566 380.76 229.735C382.355 229.398 383.554 228.72 383.599 227.552C383.631 226.779 382.764 225.247 381.87 224.937L364.567 218.914C363.143 218.419 363.313 216.47 363.933 215.351C366.597 210.558 369.243 205.873 370.905 200.743C371.588 198.637 370.581 196.35 368.879 195.726C367.176 195.101 365.11 195.73 364.158 197.505C362.101 201.323 359.549 204.328 356.086 207.014C347.663 213.541 347.501 216.102 343.98 225.809C342.614 229.578 341.365 233.216 340.391 237.066C339.636 240.044 341.145 242.676 344.132 243.642C352.968 246.495 361.979 248.592 371.287 249.212C372.32 249.28 373.901 248.494 374.507 247.928C375.824 246.692 374.741 244.302 375.621 242.905C376.161 242.052 379.714 242.402 379.835 240.857V240.848ZM337.152 235.848C339.757 230.409 341.428 225.113 343.095 219.52C343.76 217.296 344.595 214.88 344.433 212.598C344.285 210.518 341.931 209.889 340.292 209.79C338.809 209.7 337.219 210.958 336.622 212.634C333.855 220.459 331.717 228.104 329.956 236.302C329.821 236.927 330.32 238.301 330.782 238.643C332.813 240.125 335.908 238.436 337.147 235.853L337.152 235.848ZM352.811 292.093C352.654 291.563 352.281 290.813 352.065 290.723L332.965 282.92C331.752 282.426 330.288 282.813 329.677 283.904C331.425 284.973 333.14 285.616 335.036 286.28C341.073 288.396 346.774 290.467 352.811 292.093Z" fill="#AEAEAE"/>
<path d="M205.464 255.146C196.368 252.662 188.017 239.379 184.635 231.415C179.015 229.124 175.673 215.814 174.083 210.334C171.59 201.74 166.554 186.153 170.053 177.834C171.832 173.602 176.163 172.286 180.152 174.371C193.646 181.428 204.723 202.306 210.122 216.142C213.729 225.377 218.28 241.005 214.888 250.317C213.478 254.194 209.749 256.314 205.46 255.142L205.464 255.146ZM186.404 232.385C190.205 240.048 197.145 250.623 204.822 253.709C208.532 255.2 212.409 253.637 213.788 249.783C215.046 246.261 215.23 242.398 214.677 238.508C212.764 225.112 208.15 212.674 201.529 200.941C196.511 192.051 188.543 179.774 179.298 175.296C175.952 173.674 172.367 174.995 171.136 178.467C168.603 185.605 171.756 199.409 174.429 206.578C180.196 203.596 187.554 197.527 193.071 202.742C197.765 206.327 200.923 211.511 202.347 217.287C202.805 219.147 201.897 220.692 201.233 222.22C198.524 228.441 193.614 232.057 186.404 232.394V232.385ZM177.416 212.301C176.455 209.624 177.861 207.405 179.967 206.417L185.731 203.708C187.294 202.971 189.315 202.841 190.919 202.769C187.02 199.589 178.377 205.828 174.864 208.047C176.491 213.685 178.795 224.34 183.282 228.675L177.416 212.297V212.301ZM199.907 221.344C201.713 216.717 196.242 209.107 193.169 205.702C191.75 204.13 189.324 203.645 187.375 204.445C184.599 205.581 182.061 206.704 179.424 208.263C178.22 208.977 178.287 211.627 178.781 212.876L185.618 230.283C189.913 226.366 195.128 224.753 199.907 221.344ZM187.469 230.88C192.226 230.745 196.637 228.05 199.014 223.711L189.598 228.742C188.906 229.11 187.995 230.103 187.469 230.88Z" fill="#AEAEAE"/>
<path d="M266.49 73.9099C266.283 82.9074 254.2 91.9005 247.26 97.2415C241.438 93.0684 236.411 88.8189 232.068 83.5723C229.956 81.0208 228.555 78.0561 228.24 74.8353C227.706 69.3371 231.43 65.1819 236.892 64.7867C241.025 64.4857 244.497 66.5879 247.305 69.7593C250.337 66.1387 254.658 63.9961 259.213 64.9663C263.768 65.9366 266.593 69.3416 266.49 73.9144V73.9099ZM247.246 95.6648C253.247 91.1099 263.552 82.7727 265.093 75.6483C266.18 70.6173 262.685 66.3768 257.677 66.0354C253.324 65.739 250.054 68.2635 247.264 71.8975C244.641 68.2725 241.442 65.9815 237.31 66.0714C232.899 66.1657 229.435 69.4224 229.453 73.8695C229.485 82.1528 240.903 90.7819 247.242 95.6648H247.246Z" fill="#AEAEAE"/>
<path d="M255.187 167.251C252.626 170.795 250.052 178.139 244.59 176.985C242.847 176.617 241.041 175.166 240.552 172.96C239.411 167.821 241.441 161.393 246.144 158.716C249.536 156.784 253.273 159.322 255.312 162.107C256.723 160.751 258.079 159.3 259.656 158.59C262.239 157.427 265.145 158.132 266.857 160.32C271.331 166.033 271.286 175.808 265.671 176.985C260.254 178.117 258.142 171.554 255.191 167.251H255.187ZM248.264 173.068L253.763 164.942C252.761 163.464 251.701 162.125 250.263 161.182C248.826 160.239 246.746 160.769 245.758 162.184C243.175 165.867 241.657 173.517 245.362 174.308C246.086 174.46 247.743 173.845 248.269 173.068H248.264ZM264.997 162.13C264.256 161.097 262.607 160.374 261.412 160.499C259.499 160.706 257.28 163.212 257.203 164.371C257.203 164.421 261.669 175.368 265.226 174.213C268.429 173.176 267.98 166.272 264.993 162.13H264.997Z" fill="#AEAEAE"/>
<path d="M180.35 139.895L175.579 148.192C174.272 150.469 171.083 150.703 168.998 149.409C167.188 148.286 166.119 145.492 167.426 143.165L175.826 128.207C176.707 126.639 178.104 125.426 179.523 125.224C181.329 124.968 183.467 125.372 184.379 126.962L193.04 142.1C194.589 144.805 194.288 147.823 191.755 149.386C189.19 150.972 186.032 150.132 184.568 147.491L180.354 139.89L180.35 139.895ZM192.626 144.319L183.629 128.238C182.573 126.356 180.368 125.889 178.75 126.872C177.277 127.766 176.459 129.972 177.412 131.697L185.592 146.467C186.575 148.241 188.242 149.288 190.196 148.65C191.562 148.205 193.619 146.098 192.626 144.319ZM176.289 144.306L179.572 138.538L175.66 131.221L170.463 140.636C173.414 140.551 175.206 141.597 176.293 144.306H176.289ZM170.889 142.177C168.841 142.702 167.772 144.616 168.491 146.543C169.066 148.079 170.889 149.332 172.866 148.564C174.353 147.985 175.624 146.314 174.865 144.355C174.33 142.976 172.641 141.723 170.889 142.172V142.177Z" fill="#AEAEAE"/>
<path d="M324.404 156.403L324.287 165.495L318.25 165.513L318.205 149.97C320.559 148.991 322.895 150.047 324.777 149.93C326.915 149.8 328.856 148.587 331.111 149.858C332.521 150.653 334.075 152.526 334.039 154.714L333.864 165.616L327.764 165.459L327.634 156.699C327.625 156.098 326.839 155.105 326.331 154.975C325.68 154.813 324.413 155.635 324.404 156.403ZM323.16 156.852C323.178 155.055 324.449 153.807 325.954 153.793C327.611 153.78 328.986 154.948 328.995 156.767L329.026 164.309L332.624 164.255L332.795 155.01C332.818 153.847 331.987 152.064 331.214 151.435C328.851 149.512 325.855 150.725 323.569 152.625C323.214 151.915 322.841 150.77 322.284 150.806L319.535 150.981L319.418 164.34L323.088 164.385L323.155 156.852H323.16Z" fill="#AEAEAE"/>
<path d="M317.064 165.311C314.823 165.562 313.053 165.58 310.739 165.495C310.659 164.264 310.573 163.271 310.582 162.216L310.703 149.557L316.997 149.665L317.064 165.315V165.311ZM315.703 164.026L315.654 150.914L311.853 150.896V164.268C313.295 164.345 314.706 164.286 315.703 164.03V164.026Z" fill="#AEAEAE"/>
<path d="M312.352 142.603C314.063 141.862 316.269 142.37 316.924 144.086C317.508 145.622 317.109 147.72 315.397 148.533C313.924 149.229 311.866 149.014 310.874 147.181C310.128 145.806 310.389 143.452 312.352 142.603ZM313.623 143.524C312.527 143.601 311.601 145.002 311.763 145.806C312.015 147.046 313.129 147.657 314.274 147.531C315.42 147.405 316.093 146.089 315.878 144.935C315.748 144.239 314.593 143.452 313.623 143.524Z" fill="#AEAEAE"/>
</svg>
